# xmcd
#
# Track frame offsets:
#	150
#	11953
#	23121
#	34379
#	44500
#	57802
#	69441
#	81056
#	90929
#	102396
#	115710
#	126984
#	139143
#	150528
#	162282
#	174902
#
# Disc length: 2485 seconds
#
# Revision: 1
# Processed by: cddbd v1.5.2PL0 Copyright (c) Steve Scherf et al.
# Submitted via: audiograbber 1.83.01
#
DISCID=cb09b310
DTITLE=Various Artist - For Dancers Also
DYEAR=1983
DGENRE=Soul
TTITLE0=Mary Love - Lay This Burden Down
TTITLE1=Vernon Garrett - If I Could Turn Back The Hands Of Time
TTITLE2=Z.Z. Hill - You Just Cheat And Lie
TTITLE3=The Sweathearts - Beauty Is Just Skin Deep
TTITLE4=Yvonne Baker - My Baby Needs Me
TTITLE5=Danny Monday - Good Taste Of Love
TTITLE6=Can It Be Me - Mel Williams
TTITLE7=Jimmy Bee - Wanting You
TTITLE8=Booker T. Avehart and The Mustangs - Take Your Shoes Off (Part 1)
TTITLE9=The Other Brothers - Hole In The Wall
TTITLE10=Talkin' Woman - Lowell Fulsom
TTITLE11=Willi Gauff and The Love Brothers - Everybody Needs Love
TTITLE12=Vernon Garrett - Running Out
TTITLE13=The Johnny Otis Show - Country Girl
TTITLE14=Jackie Day - What Kind Of Man Are You?
TTITLE15=Mary Love - I'm In Your Hands
EXTD=Kent Records 002 (Ace Records Ltd)
EXTT0=
EXTT1=
EXTT2=
EXTT3=
EXTT4=
EXTT5=
EXTT6=
EXTT7=
EXTT8=
EXTT9=
EXTT10=
EXTT11=
EXTT12=
EXTT13=
EXTT14=
EXTT15=
PLAYORDER=
